# xmcd
#
# Track frame offsets:
#	150
#	25324
#	40203
#	66389
#	83928
#	107012
#	120448
#	150685
#	171669
#	188149
#	211817
#	228647
#	246135
#	271979
#	285238
#
# Disc length: 4072 seconds
#
# Revision: 1
# Processed by: cddbd v1.5.2PL0 Copyright (c) Steve Scherf et al.
# Submitted via: audiograbber 1.83.01
#
DISCID=d10fe60f
DTITLE=Nujeen Mustafa - Flucht in die Freiheit - CD 2
DYEAR=2016
DGENRE=Hörbuch
TTITLE0=2 - 14 - Flucht in die Freihei
TTITLE1=2 - 15 - Flucht in die Freihei
TTITLE2=3 - 16 - Flucht in die Freihei
TTITLE3=2 - 17 - Flucht in die Freihei
TTITLE4=2 - 18 - Flucht in die Freihei
TTITLE5=2 - 19 - Flucht in die Freihei
TTITLE6=2 - 20 - Flucht in die Freihei
TTITLE7=2 - 21 - Flucht in die Freihei
TTITLE8=2 - 22 - Flucht in die Freihei
TTITLE9=2 - 23 - Flucht in die Freihei
TTITLE10=2 - 24 - Flucht in die Freihei
TTITLE11=2 - 25 - Flucht in die Freihei
TTITLE12=2 - 26 - Flucht in die Freihei
TTITLE13=2 - 27 - Flucht in die Freihei4
TTITLE14=2 - 28 - Flucht in die Freihei
EXTD=
EXTT0=
EXTT1=
EXTT2=
EXTT3=
EXTT4=
EXTT5=
EXTT6=
EXTT7=
EXTT8=
EXTT9=
EXTT10=
EXTT11=
EXTT12=
EXTT13=
EXTT14=
PLAYORDER=
